<?xml version="1.0" encoding="UTF-8" standalone="no"?>
<!-- Created with Inkscape (http://www.inkscape.org/) -->

<svg
   xmlns:dc="http://purl.org/dc/elements/1.1/"
   xmlns:cc="http://creativecommons.org/ns#"
   xmlns:rdf="http://www.w3.org/1999/02/22-rdf-syntax-ns#"
   xmlns:svg="http://www.w3.org/2000/svg"
   xmlns="http://www.w3.org/2000/svg"
   xmlns:sodipodi="http://sodipodi.sourceforge.net/DTD/sodipodi-0.dtd"
   xmlns:inkscape="http://www.inkscape.org/namespaces/inkscape"
   width="185.34375"
   height="305.375"
   id="svg4091"
   version="1.1"
   inkscape:version="0.48.4 r9939"
   sodipodi:docname="Nouveau document 10">
  <defs
     id="defs4093" />
  <sodipodi:namedview
     id="base"
     pagecolor="#ffffff"
     bordercolor="#666666"
     borderopacity="1.0"
     inkscape:pageopacity="0.0"
     inkscape:pageshadow="2"
     inkscape:zoom="0.35"
     inkscape:cx="953.39379"
     inkscape:cy="-495.88193"
     inkscape:document-units="px"
     inkscape:current-layer="layer1"
     showgrid="false"
     fit-margin-top="0"
     fit-margin-left="0"
     fit-margin-right="0"
     fit-margin-bottom="0"
     inkscape:window-width="1366"
     inkscape:window-height="716"
     inkscape:window-x="-8"
     inkscape:window-y="22"
     inkscape:window-maximized="1" />
  <metadata
     id="metadata4096">
    <rdf:RDF>
      <cc:Work
         rdf:about="">
        <dc:format>image/svg+xml</dc:format>
        <dc:type
           rdf:resource="http://purl.org/dc/dcmitype/StillImage" />
        <cc:license
           rdf:resource="http://creativecommons.org/licenses/publicdomain/" />
        <dc:title></dc:title>
      </cc:Work>
      <cc:License
         rdf:about="http://creativecommons.org/licenses/publicdomain/">
        <cc:permits
           rdf:resource="http://creativecommons.org/ns#Reproduction" />
        <cc:permits
           rdf:resource="http://creativecommons.org/ns#Distribution" />
        <cc:permits
           rdf:resource="http://creativecommons.org/ns#DerivativeWorks" />
      </cc:License>
    </rdf:RDF>
  </metadata>
  <g
     inkscape:label="Calque 1"
     inkscape:groupmode="layer"
     id="layer1"
     transform="translate(578.39379,268.89475)">
    <g
       id="Calque_1"
       transform="translate(-578.89379,-269.39475)">
      <g
         id="g4008">
        <path
           stroke-miterlimit="10"
           d="M 19.308,1 C 9.211,1 1,9.145 1,19.159 v 174.33 H 8.277 V 19.159 c 0,-6.034 4.946,-10.94 11.03,-10.94 h 147.744 c 6.083,0 11.029,4.906 11.029,10.94 v 268.054 c 0,6.035 -4.946,10.939 -11.029,10.939 H 19.308 c -6.084,0 -11.03,-4.904 -11.03,-10.939 v -39.184 c 0,-20.951 9.05,-49.988 25.476,-81.769 l -6.472,-3.29 C 10.088,196.223 1,225.637 1,248.029 v 39.184 c 0,10.014 8.211,18.158 18.308,18.158 h 147.744 c 10.096,0 18.307,-8.145 18.307,-18.158 V 19.159 C 185.358,9.145 177.147,1 167.052,1 H 19.308 z"
           id="path4010"
           inkscape:connector-curvature="0"
           style="fill:#009fe3;stroke:#009fe3;stroke-miterlimit:10" />
      </g>
      <path
         stroke-miterlimit="10"
         d="m 15.347,143.307 c 0.038,9.54 11.84,20.622 20.401,25.894 8.575,5.264 13.877,-4.295 15.482,-5.357 1.592,-1.071 20.705,-30.818 22.301,-32.943 1.597,-2.124 -0.042,-11.664 -5.396,-14.822 -5.354,-3.158 -11.258,-8.962 -4.866,-14.813 6.387,-5.855 38.324,-36.186 40.447,-38.845 2.132,-2.66 7.987,-6.386 11.749,-2.693 3.753,3.699 13.938,13.727 19.273,10.526 5.325,-3.2 34.644,-21.33 36.771,-23.455 2.127,-2.133 2.639,-9.023 -0.583,-13.252 -3.222,-4.225 -11.815,-14.789 -15.559,-17.425 -3.753,-2.632 -12.84,-3.13 -24.575,1.682 C 119.057,22.616 15.124,84.49 15.347,143.307 z"
         id="path4012"
         inkscape:connector-curvature="0"
         style="fill:#009fe3;stroke:#009fe3;stroke-miterlimit:10" />
      <g
         id="g4014">
        <g
           id="g4016">
          <path
             d="M 74.191,186.14 V 286.5 H 60.762 V 215.262 H 37.438 v -10.037 c 8.574,0 14.606,-1.122 18.094,-3.369 3.958,-2.524 6.926,-7.764 8.905,-15.716 h 9.754 z"
             id="path4018"
             inkscape:connector-curvature="0"
             style="fill:#009fe3" />
          <path
             d="M 76.716,289.024 H 58.238 V 217.786 H 34.913 V 202.7 h 2.524 c 8.043,0 13.671,-0.998 16.728,-2.967 3.385,-2.158 6.014,-6.935 7.823,-14.203 l 0.476,-1.915 h 14.252 v 105.409 z m -13.43,-5.049 h 8.381 v -95.311 h -5.289 c -2.154,7.606 -5.268,12.628 -9.489,15.32 -3.558,2.292 -9.113,3.52 -16.927,3.731 v 5.021 h 23.324 v 71.239 z"
             id="path4020"
             inkscape:connector-curvature="0"
             style="fill:#009fe3" />
        </g>
        <g
           id="g4022">
          <path
             d="m 108.53,198.664 -4.199,27.16 c 2.52,-1.96 5.086,-3.405 7.699,-4.34 3.36,-1.212 7.187,-1.82 11.48,-1.82 8.771,0 16.24,2.709 22.4,8.12 6.812,5.975 10.22,13.86 10.22,23.655 0,8.309 -2.101,15.494 -6.3,21.561 -6.255,8.959 -16.148,13.439 -29.681,13.439 -8.027,0 -14.699,-1.773 -20.02,-5.32 C 93.221,276.453 89.209,269.08 88.089,259 h 12.88 c 0.652,5.508 2.846,9.658 6.58,12.459 3.731,2.801 8.54,4.199 14.42,4.199 6.252,0 11.292,-2.191 15.12,-6.578 3.826,-4.387 5.74,-9.801 5.74,-16.24 0,-6.996 -2.055,-12.407 -6.16,-16.235 -4.108,-3.826 -9.38,-5.74 -15.82,-5.74 -7.468,0 -13.58,3.128 -18.34,9.38 l -10.78,-0.56 7.42,-53.2 h 51.521 v 12.18 h -42.14 z"
             id="path4024"
             inkscape:connector-curvature="0"
             style="fill:#009fe3" />
          <path
             d="m 120.15,288.939 c -8.491,0 -15.693,-1.932 -21.406,-5.74 -7.522,-5.081 -11.938,-13.127 -13.138,-23.923 L 85.298,256.5 h 17.894 l 0.261,2.206 c 0.574,4.841 2.404,8.358 5.598,10.753 3.271,2.455 7.617,3.699 12.92,3.699 5.547,0 9.877,-1.872 13.236,-5.722 3.448,-3.953 5.124,-8.728 5.124,-14.597 0,-6.327 -1.755,-11.041 -5.365,-14.407 -3.662,-3.411 -8.279,-5.069 -14.115,-5.069 -6.702,0 -12.05,2.746 -16.351,8.394 l -0.8,1.051 -14.822,-0.769 8.097,-58.056 h 56.196 v 17.18 h -42.498 l -3.019,19.528 c 1.169,-0.616 2.349,-1.138 3.534,-1.562 3.616,-1.304 7.764,-1.966 12.322,-1.966 9.355,0 17.446,2.941 24.05,8.742 7.346,6.443 11.07,15.037 11.07,25.534 0,8.786 -2.27,16.519 -6.744,22.983 -6.727,9.636 -17.402,14.517 -31.736,14.517 z M 90.972,261.5 c 1.403,7.95 4.873,13.708 10.558,17.548 4.865,3.243 11.134,4.892 18.62,4.892 12.781,0 21.819,-4.047 27.631,-12.37 3.88,-5.605 5.85,-12.381 5.85,-20.13 0,-9.121 -3.064,-16.247 -9.368,-21.776 -5.745,-5.047 -12.533,-7.5 -20.752,-7.5 -3.979,0 -7.556,0.563 -10.632,1.672 -2.36,0.844 -4.717,2.176 -7.012,3.961 l -4.967,3.864 5.488,-35.498 h 41.784 v -7.18 h -46.845 l -6.743,48.345 6.771,0.352 c 5.121,-6.184 11.674,-9.316 19.496,-9.316 7.061,0 12.956,2.157 17.524,6.411 4.616,4.305 6.956,10.385 6.956,18.065 0,7.031 -2.139,13.048 -6.356,17.884 -4.305,4.934 -10.026,7.435 -17.004,7.435 -6.409,0 -11.766,-1.581 -15.921,-4.7 -3.761,-2.82 -6.181,-6.836 -7.212,-11.958 h -7.866 z"
             id="path4026"
             inkscape:connector-curvature="0"
             style="fill:#009fe3" />
        </g>
      </g>
    </g>
  </g>
</svg>
